<svg width="47" height="41" viewBox="0 0 47 41" fill="none" xmlns="http://www.w3.org/2000/svg">
<path d="M13.5 23.0153C13.5 17.2169 18.2133 12.5 24 12.5C29.7868 12.5 34.5 17.2165 34.5 23.0153C34.5 28.8143 29.7868 33.5311 24 33.5311C18.2132 33.5311 13.5 28.8143 13.5 23.0153Z" stroke="#9B63F8" stroke-width="3"/>
<path d="M22.6803 17.1377H25.5093V29.641H22.6803V17.1377Z" fill="#9B63F8"/>
<path d="M18.4369 24.9523V21.8264H29.7528V24.9523H18.4369Z" fill="#9B63F8"/>
<path d="M34.0107 8.33337L33.6584 7.33064L31.6431 1.59554C31.6431 1.59533 31.643 1.59512 31.6429 1.59491C31.6224 1.53705 31.5944 1.50993 31.5823 1.50091C31.5819 1.50058 31.5815 1.50028 31.5811 1.5H15.4188C15.4185 1.50022 15.4182 1.50045 15.4179 1.50069C15.4062 1.50944 15.3784 1.5363 15.3579 1.59427L34.0107 8.33337ZM34.0107 8.33337H35.0735H44.389C44.8808 8.33337 45.5 8.81416 45.5 9.68046V9.68054V38.1528C45.5 39.0192 44.8807 39.5 44.3889 39.5H2.61108C2.11938 39.5 1.5 39.0192 1.5 38.1527V9.68054C1.5 8.81417 2.11935 8.33337 2.61108 8.33337H11.926H12.9887L13.3411 7.33086L15.3577 1.59466L34.0107 8.33337Z" stroke="#9B63F8" stroke-width="3"/>
</svg>
